<?xml version="1.0" encoding="UTF-8"?>
<svg width="624px" height="438px" viewBox="0 0 624 438" version="1.1" xmlns="http://www.w3.org/2000/svg" xmlns:xlink="http://www.w3.org/1999/xlink">
    <!-- Generator: Sketch 63.1 (92452) - https://sketch.com -->
    <title>Fb confirmation illustration 1</title>
    <desc>Created with Sketch.</desc>
    <defs>
        <linearGradient x1="43.8926552%" y1="69.9982446%" x2="20.9536185%" y2="-9.92424964%" id="linearGradient-1">
            <stop stop-color="#0B3961" offset="0%"></stop>
            <stop stop-color="#000000" stop-opacity="0.5" offset="100%"></stop>
        </linearGradient>
        <circle id="path-2" cx="324.5" cy="244.5" r="158.5"></circle>
        <filter x="-21.8%" y="-21.8%" width="138.5%" height="138.5%" filterUnits="objectBoundingBox" id="filter-3">
            <feOffset dx="-8" dy="-8" in="SourceAlpha" result="shadowOffsetOuter1"></feOffset>
            <feGaussianBlur stdDeviation="19" in="shadowOffsetOuter1" result="shadowBlurOuter1"></feGaussianBlur>
            <feColorMatrix values="0 0 0 0 0.658823529   0 0 0 0 0.752941176   0 0 0 0 0.811764706  0 0 0 1 0" type="matrix" in="shadowBlurOuter1"></feColorMatrix>
        </filter>
        <polygon id="path-4" points="0.7855 0.0683 58.413 0.0683 58.413 28.4183 0.7855 28.4183"></polygon>
    </defs>
    <g id="Fb-confirmation-illustration-1" stroke="none" stroke-width="1" fill="none" fill-rule="evenodd">
        <g id="Oval">
            <use fill="black" fill-opacity="1" filter="url(#filter-3)" xlink:href="#path-2"></use>
            <use fill="#0B3961" fill-rule="evenodd" xlink:href="#path-2"></use>
            <use fill="url(#linearGradient-1)" fill-rule="evenodd" xlink:href="#path-2"></use>
        </g>
        <g id="Group-32" transform="translate(106.000000, 40.000000)">
            <path d="M3.4351,105.8617 C8.7631,105.0117 14.3311,103.8777 14.6271,101.9217 C14.9241,99.9647 11.2491,98.5887 12.1361,95.8317 C12.7271,93.9937 18.2831,96.9177 28.8021,104.6037 L60.7401,109.6967 L58.0691,127.2847 L23.5831,112.7617 C15.1111,112.5197 7.8241,111.4397 1.7201,109.5217 C0.1851,108.6747 -1.8939,106.7117 3.4351,105.8617" id="Fill-1" fill="#9DB8DB"></path>
            <path d="M58.5532,124.1078 L58.0732,127.2878 L23.5822,112.7578 C15.1132,112.5178 7.8232,111.4378 1.7232,109.5178 C0.1832,108.6778 -1.8968,106.7078 3.4332,105.8578 C5.9632,105.4478 8.5332,104.9878 10.5822,104.4078 L58.5532,124.1078 Z" id="Fill-3" fill="#658FC7"></path>
            <path d="M412.2017,91.4691 C406.3947,94.1541 399.3057,96.1601 390.9337,97.4871 L358.5977,116.3131 L353.6917,99.2141 L384.7127,90.0661 C394.1597,81.0941 399.2937,77.4811 400.1157,79.2281 C401.3477,81.8481 397.8807,83.6841 398.4267,85.5871 C398.9727,87.4901 404.6387,87.9001 410.0317,88.0591 C415.4257,88.2191 413.6157,90.4321 412.2017,91.4691" id="Fill-5" fill="#9DB8DB"></path>
            <path d="M227.4614,104.5995 C232.8204,123.5345 229.4914,141.0565 220.0244,143.7355 C210.5574,146.4155 198.5374,133.2385 193.1774,114.3045 C187.8174,95.3705 191.1484,77.8485 200.6144,75.1685 C210.0814,72.4885 222.1014,85.6655 227.4614,104.5995" id="Fill-7" fill="#B5C7D3"></path>
            <path d="M181.9566,79.8377 C180.1356,79.2947 177.1916,79.1577 175.7886,80.8117 C174.1446,82.7467 175.4686,86.1277 176.4376,88.6027 C176.9896,90.0127 180.2516,98.3417 185.8526,98.3407 C186.3626,98.3407 188.2316,98.3397 189.4226,97.0427 C192.7476,93.4177 188.7726,81.8687 181.9566,79.8377" id="Fill-9" fill="#B5C7D3"></path>
            <path d="M225.4214,70.8685 C232.6924,90.1465 229.2404,109.3015 217.7084,113.6515 C206.1774,118.0005 190.9344,105.8995 183.6624,86.6205 C176.3904,67.3425 179.8434,48.1885 191.3744,43.8385 C202.9054,39.4885 218.1494,51.5905 225.4214,70.8685" id="Fill-11" fill="#658FC7"></path>
            <path d="M234.815,57.9745 C242.415,78.1205 235.635,99.3325 219.674,105.3535 C203.713,111.3745 184.613,99.9245 177.014,79.7785 C169.415,59.6325 176.193,38.4205 192.155,32.3995 C208.116,26.3785 227.215,37.8285 234.815,57.9745" id="Fill-13" fill="#B5C7D3"></path>
            <path d="M180.98,37.8358 C177.671,41.8258 174.018,47.5688 172.374,55.0488 C169.485,68.1958 174.072,80.9258 175.816,80.8698 C176.281,80.8548 176.519,79.9348 177.751,79.5708 C178.245,79.4238 179.094,79.3088 180.573,79.9028 C183.815,81.2038 183.952,83.4538 186.715,84.2188 C187.24,84.3638 188.345,84.6548 189.538,84.2188 C191.35,83.5568 192.114,81.6718 192.36,81.0648 C193.48,78.3018 192.501,75.8478 192.858,75.7518 C193.221,75.6548 194.464,78.1398 195.348,81.5628 C196.355,85.4608 196.459,88.8808 196.344,91.3578 C203.765,89.9478 212.96,87.4548 222.908,82.8908 C229.018,80.0878 234.272,77.0268 238.680013,74.0918 C238.682,71.0408 238.453,66.9818 237.518,62.3048 C236.005,54.7378 233.342,49.0388 231.541,45.7028 C228.492,40.0528 226.299,35.9918 221.58,32.5868 C216.167,28.6808 210.452,27.8208 207.302,27.6068 C207.713,25.9228 208.143,23.5228 208.132,20.6328 C208.119,17.1268 208.098,11.4808 204.314,6.8538 C200.895,2.6728 196.209,1.5318 193.522,0.8768 C190.92,0.2428 185.47,-1.0852 179.909,1.7068 C175.762,3.7888 173.676,7.0958 172.604,8.8458 C171.835,10.0998 167.515,17.1478 169.948,24.9498 C171.442,29.7428 174.88,32.8828 176.92,34.7448 C178.471,36.1608 179.92,37.1688 180.98,37.8358" id="Fill-15" fill="#B5C7D3"></path>
            <path d="M180.98,37.8358 C177.671,41.8258 174.018,47.5688 172.374,55.0488 C169.485,68.1958 174.072,80.9258 175.816,80.8698 C176.281,80.8548 176.519,79.9348 177.751,79.5708 C178.245,79.4238 179.094,79.3088 180.573,79.9028 C183.815,81.2038 183.952,83.4538 186.715,84.2188 C187.24,84.3638 188.345,84.6548 189.538,84.2188 C191.35,83.5568 192.114,81.6718 192.36,81.0648 C193.48,78.3018 192.501,75.8478 192.858,75.7518 C193.221,75.6548 194.464,78.1398 195.348,81.5628 C196.355,85.4608 196.459,88.8808 196.344,91.3578 C203.765,89.9478 212.96,87.4548 222.908,82.8908 C229.018,80.0878 234.272,77.0268 238.680013,74.0918 C238.682,71.0408 238.453,66.9818 237.518,62.3048 C236.005,54.7378 233.342,49.0388 231.541,45.7028 C228.492,40.0528 226.299,35.9918 221.58,32.5868 C216.167,28.6808 210.452,27.8208 207.302,27.6068 C207.713,25.9228 208.143,23.5228 208.132,20.6328 C208.119,17.1268 208.098,11.4808 204.314,6.8538 C200.895,2.6728 196.209,1.5318 193.522,0.8768 C190.92,0.2428 185.47,-1.0852 179.909,1.7068 C175.762,3.7888 173.676,7.0958 172.604,8.8458 C171.835,10.0998 167.515,17.1478 169.948,24.9498 C171.442,29.7428 174.88,32.8828 176.92,34.7448 C178.471,36.1608 179.92,37.1688 180.98,37.8358" id="Fill-17" fill="#0B3961"></path>
            <path d="M222.4273,97.1971 C222.4273,98.9161 221.0343,100.3091 219.3153,100.3091 C217.5963,100.3091 216.2023,98.9161 216.2023,97.1971 C216.2023,95.4781 217.6503,98.7311 219.3683,98.7311 C221.0883,98.7311 222.4273,95.4781 222.4273,97.1971" id="Fill-19" fill="#C75A65"></path>
            <path d="M216.3687,66.7313 C218.0357,72.7313 219.7027,78.7313 221.3687,84.7313 C223.7027,83.3983 226.0357,82.0643 228.3687,80.7313 C224.3687,76.0643 220.3687,71.3983 216.3687,66.7313" id="Fill-21" fill="#B5C7D3"></path>
            <path d="M224.3687,66.7313 C226.7027,71.0643 229.0357,75.3983 231.3687,79.7313 C232.7027,78.7313 234.0357,77.7313 235.3687,76.7313 C231.7027,73.3983 228.0357,70.0643 224.3687,66.7313" id="Fill-23" fill="#B5C7D3"></path>
            <g id="Group-27" transform="translate(356.000000, 87.828000)">
                <mask id="mask-5" fill="white">
                    <use xlink:href="#path-4"></use>
                </mask>
                <g id="Clip-26"></g>
                <path d="M52.3365,0.0683 C53.1465,0.1083 53.9665,0.1383 54.7755,0.1583 C60.1665,0.3183 58.3565,2.5283 56.9455,3.5683 C51.1365,6.2583 44.0455,8.2583 35.6765,9.5883 L3.3365,28.4183 L0.7855,19.5083 L52.3365,0.0683 Z" id="Fill-25" fill="#658FC7" mask="url(#mask-5)"></path>
            </g>
            <path d="M40.0249,103.0418 C40.8509,110.4718 41.6759,117.9028 42.5029,125.3328 C61.8199,131.0928 84.2319,136.4578 109.3759,140.1938 C129.0539,143.1178 147.3389,144.5868 163.8649,145.1468 C164.0219,162.3498 167.8069,174.4058 171.2959,182.2988 C174.1909,188.8518 177.2759,193.4268 178.7249,202.1128 C180.8169,214.6448 176.6279,218.4948 178.7249,224.4048 C184.1239,239.6128 225.2219,251.7528 248.0759,231.8348 C258.7859,222.4998 260.7729,207.5888 262.9359,192.2068 C266.5179,166.7348 259.4909,155.3758 267.8899,145.1468 C270.6619,141.7718 273.3119,140.7128 297.6119,135.2398 C321.8409,129.7828 344.8959,119.2378 369.4379,115.4258 C371.6349,115.0838 376.7049,114.3468 379.3449,110.4718 C383.3989,104.5248 379.1289,95.0098 376.8689,90.6578 C312.2089,95.3898 278.9629,99.7418 260.4599,103.0418 C258.8769,103.3238 258.0839,103.4528 257.6879,103.5318 C239.2959,107.2258 234.8019,116.6328 222.0249,117.6578 C220.8909,117.7488 217.9359,117.3848 212.0249,116.6578 C193.7139,114.4048 190.2449,112.2578 175.1569,110.1748 C165.6589,108.8638 157.9609,108.5158 149.0039,107.9958 C118.2589,106.2088 112.4849,109.2998 84.6079,107.9958 C74.5459,107.5238 59.1029,106.3638 40.0249,103.0418" id="Fill-28" fill="#C75A65"></path>
            <path d="M178.1431,222.828 C178.4841,224.108 179.0751,225.888 180.1431,227.828 C188.3381,242.7 214.0241,247.623 233.1431,240.828 C237.0821,239.428 246.4981,235.943 253.1431,226.828 C257.5641,220.763 258.9411,214.733 261.1431,204.828 C261.7901,201.915 262.5411,198.007 264.1431,182.828 C265.0571,174.167 265.7081,166.95 266.1431,161.828 C267.3851,155.902 267.5921,151.984 267.5091,149.389 C267.4781,148.412 267.1481,146.937 268.1431,145.828 C269.1281,144.729 273.1391,141.829 273.1411,141.828 L273.1431,141.828 C275.9921,140.178 278.4761,139.63 285.6431,138.328 C290.6411,137.42 292.0481,137.209 294.1431,136.828 C296.6161,136.378 303.3831,135.044 311.1431,132.828 C316.5961,131.271 319.4691,130.166 326.1431,127.828 C345.2911,121.119 352.2941,119.472 352.1431,118.828 C352.0811,118.567 350.8071,118.304 320.1431,123.828 C299.7831,127.496 295.3581,128.506 289.6431,130.328 C275.7761,134.749 268.8421,136.96 264.1431,142.828 C261.8791,145.655 260.6101,148.524 257.1431,173.828 C254.6261,192.2 254.7151,194.924 252.6431,202.328 C249.4561,213.719 247.4341,221.075 240.6431,226.328 C233.1901,232.094 224.2371,232.221 216.6431,232.328 C205.6841,232.483 197.0181,230.021 191.6431,228.328 C185.9501,226.535 181.3731,224.464 178.1431,222.828" id="Fill-30" fill="#9E464F"></path>
        </g>
    </g>
</svg>