<?xml version="1.0" encoding="UTF-8"?>
<svg width="128px" height="128px" viewBox="0 0 128 128" version="1.1" xmlns="http://www.w3.org/2000/svg" xmlns:xlink="http://www.w3.org/1999/xlink">
    <!-- Generator: Sketch 63.1 (92452) - https://sketch.com -->
    <title>Icon_Man_128</title>
    <desc>Created with Sketch.</desc>
    <g id="Icon_Man_128" stroke="none" stroke-width="1" fill="none" fill-rule="evenodd">
        <g id="Group-2">
            <g id="Colors/Brand/sec-col1" fill="#FFFFFF">
                <rect id="-" x="0" y="0" width="128" height="128"></rect>
            </g>
            <g id="Group" transform="translate(30.000000, 24.000000)">
                <g id="Group-17">
                    <g id="ic_face">
                        <g id="Icon-24px">
                            <path d="M25.35,33.2114428 C23.4065,33.2114428 21.8291667,34.794286 21.8291667,36.744575 C21.8291667,38.694864 23.4065,40.2777072 25.35,40.2777072 C27.2935,40.2777072 28.8708333,38.694864 28.8708333,36.744575 C28.8708333,34.794286 27.2935,33.2114428 25.35,33.2114428 L25.35,33.2114428 Z M42.25,33.2114428 C40.3065,33.2114428 38.7291667,34.794286 38.7291667,36.744575 C38.7291667,38.694864 40.3065,40.2777072 42.25,40.2777072 C44.1935,40.2777072 45.7708333,38.694864 45.7708333,36.744575 C45.7708333,34.794286 44.1935,33.2114428 42.25,33.2114428 L42.25,33.2114428 Z M33.8,5.65301154 C18.252,5.65301154 5.63333333,18.3157574 5.63333333,33.9180692 C5.63333333,49.5203811 18.252,62.1831269 33.8,62.1831269 C49.348,62.1831269 61.9666667,49.5203811 61.9666667,33.9180692 C61.9666667,18.3157574 49.348,5.65301154 33.8,5.65301154 L33.8,5.65301154 Z M33.8,56.5301154 C21.3785,56.5301154 11.2666667,46.3829597 11.2666667,33.9180692 C11.2666667,33.0983826 11.323,32.2786959 11.4075,31.4872743 C18.0548333,28.5194432 23.322,23.0642871 26.0823333,16.3089383 C31.1805,23.5447931 39.5741667,28.2650577 49.0663333,28.2650577 C51.2633333,28.2650577 53.3758333,28.0106722 55.4038333,27.5301662 C55.9953333,29.5369853 56.3333333,31.6851297 56.3333333,33.9180692 C56.3333333,46.3829597 46.2215,56.5301154 33.8,56.5301154 L33.8,56.5301154 Z" id="Shape" fill="#658FC7"></path>
                            <polyline id="Shape" points="0 0 67.6 0 67.6 67.8361385 0 67.8361385"></polyline>
                        </g>
                    </g>
                    <polygon id="Triangle" fill="#658FC7" transform="translate(26.359542, 65.125860) rotate(54.000000) translate(-26.359542, -65.125860) " points="26.3276272 55.4996698 35.9881237 74.7520504 16.7309609 74.7201352"></polygon>
                    <polygon id="Triangle-Copy" fill="#658FC7" transform="translate(39.753693, 65.125860) scale(-1, 1) rotate(54.000000) translate(-39.753693, -65.125860) " points="39.7217778 55.4996698 49.3822744 74.7520504 30.1251116 74.7201352"></polygon>
                </g>
            </g>
        </g>
    </g>
</svg>