<?xml version="1.0" encoding="UTF-8"?>
<svg width="128px" height="128px" viewBox="0 0 128 128" version="1.1" xmlns="http://www.w3.org/2000/svg" xmlns:xlink="http://www.w3.org/1999/xlink">
    <!-- Generator: Sketch 63.1 (92452) - https://sketch.com -->
    <title>Icon_Woman_128</title>
    <desc>Created with Sketch.</desc>
    <g id="Icon_Woman_128" stroke="none" stroke-width="1" fill="none" fill-rule="evenodd">
        <g id="Colors/Brand/sec-col1">
            <rect id="-" x="0" y="0" width="128" height="128"></rect>
        </g>
        <g id="Group-10" transform="translate(20.000000, 30.000000)">
            <g id="Group">
                <g id="ic_face" transform="translate(9.938493, 0.000000)">
                    <g id="Icon-24px">
                        <path d="M25.4243798,33.0958333 C23.4751774,33.0958333 21.893216,34.6731667 21.893216,36.6166667 C21.893216,38.5601667 23.4751774,40.1375 25.4243798,40.1375 C27.3735823,40.1375 28.9555437,38.5601667 28.9555437,36.6166667 C28.9555437,34.6731667 27.3735823,33.0958333 25.4243798,33.0958333 L25.4243798,33.0958333 Z M42.3739664,33.0958333 C40.424764,33.0958333 38.8428025,34.6731667 38.8428025,36.6166667 C38.8428025,38.5601667 40.424764,40.1375 42.3739664,40.1375 C44.3231689,40.1375 45.9051303,38.5601667 45.9051303,36.6166667 C45.9051303,34.6731667 44.3231689,33.0958333 42.3739664,33.0958333 L42.3739664,33.0958333 Z M33.8991731,5.63333333 C18.3055535,5.63333333 5.64986219,18.252 5.64986219,33.8 C5.64986219,49.348 18.3055535,61.9666667 33.8991731,61.9666667 C49.4927928,61.9666667 62.1484841,49.348 62.1484841,33.8 C62.1484841,18.252 49.4927928,5.63333333 33.8991731,5.63333333 L33.8991731,5.63333333 Z M33.8991731,56.3333333 C21.441227,56.3333333 11.2997244,46.2215 11.2997244,33.8 C11.2997244,32.9831667 11.356223,32.1663333 11.4409709,31.3776667 C18.1078083,28.4201667 23.3904295,22.984 26.1588619,16.2521667 C31.2719872,23.4628333 39.6902819,28.1666667 49.2102997,28.1666667 C51.4137459,28.1666667 53.5324442,27.9131667 55.5663946,27.4343333 C56.1596302,29.4341667 56.4986219,31.5748333 56.4986219,33.8 C56.4986219,46.2215 46.3571193,56.3333333 33.8991731,56.3333333 L33.8991731,56.3333333 Z" id="Shape" fill="#658FC7"></path>
                        <polyline id="Shape" points="0 0 67.7983463 0 67.7983463 67.6 0 67.6"></polyline>
                    </g>
                </g>
                <polygon id="Triangle" fill="#658FC7" transform="translate(14.025759, 31.480903) rotate(54.000000) translate(-14.025759, -31.480903) " points="13.9166018 21.6353524 23.8794877 41.3264537 4.17203035 41.2172964"></polygon>
                <polygon id="Triangle-Copy" fill="#658FC7" transform="translate(73.981213, 30.161785) scale(-1, 1) rotate(54.000000) translate(-73.981213, -30.161785) " points="73.8720559 20.3162348 83.8349419 40.007336 64.1274845 39.8981788"></polygon>
            </g>
        </g>
    </g>
</svg>