<?xml version="1.0" encoding="UTF-8"?>
<svg width="24px" height="24px" viewBox="0 0 24 24" version="1.1" xmlns="http://www.w3.org/2000/svg" xmlns:xlink="http://www.w3.org/1999/xlink">
    <!-- Generator: Sketch 63.1 (92452) - https://sketch.com -->
    <title>icons / search / loop</title>
    <desc>Created with Sketch.</desc>
    <g id="icons-/-search-/-loop" stroke="none" stroke-width="1" fill="none" fill-rule="evenodd">
        <path d="M11,6 C13.7614237,6 16,8.23857625 16,11 C16,12.1284013 15.6262055,13.1694983 14.9956849,14.0062223 C15.0766103,14.0400799 15.151943,14.0912829 15.2177516,14.1570914 L18.649991,17.5893308 C18.91804,17.8573798 18.9454093,18.2738316 18.7265811,18.568924 L18.6535412,18.6535412 C18.360648,18.9464344 17.8812716,18.9419317 17.5893308,18.649991 L14.1570914,15.2177516 C14.0908997,15.1515599 14.0393843,15.0763187 14.0026284,14.9960903 C13.1686654,15.6265044 12.12795,16 11,16 C8.23857625,16 6,13.7614237 6,11 C6,8.23857625 8.23857625,6 11,6 Z M11,7 C8.790861,7 7,8.790861 7,11 C7,13.209139 8.790861,15 11,15 C13.209139,15 15,13.209139 15,11 C15,8.790861 13.209139,7 11,7 Z" id="Icon" fill="#A8C0CF"></path>
    </g>
</svg>